# xmcd CD database file
#
# Track frame offsets:
#	150
#	18256
#	41638
#	57212
#	71160
#	87986
#	113288
#	128553
#	139854
#	158430
#	175621
#	192120
#
# Disc length: 2713 seconds
#
# Revision: 0
# Processed by: cddbd v1.5.2PL0 Copyright (c) Steve Scherf et al.
# Submitted via: CDex 1.51
#
DISCID=8f0a970c
DTITLE=Lucinda Williams - Blessed [CD2)
DYEAR=2011
DGENRE=Country
TTITLE0=Buttercup
TTITLE1=I Don't Know How You're Livin'
TTITLE2=Copenhagen
TTITLE3=Born To Be Loved
TTITLE4=Seeing Black
TTITLE5=Soldier's Song
TTITLE6=Blessed
TTITLE7=Sweet Love
TTITLE8=Ugly Truth
TTITLE9=Convince Me
TTITLE10=Awakening
TTITLE11=Kiss Like Your Kiss
EXTD=YEAR: 2011
EXTT0=
EXTT1=
EXTT2=
EXTT3=
EXTT4=
EXTT5=
EXTT6=
EXTT7=
EXTT8=
EXTT9=
EXTT10=
EXTT11=
PLAYORDER=
